<?xml version="1.0" encoding="UTF-8"?>
<svg xmlns="http://www.w3.org/2000/svg" xmlns:xlink="http://www.w3.org/1999/xlink" width="184" height="186" viewBox="0 0 184 186">
<rect x="-18.4" y="-18.6" width="220.8" height="223.2" fill="rgb(100%, 100%, 100%)" fill-opacity="0"/>
<path fill="none" stroke-width="0.1" stroke-linecap="butt" stroke-linejoin="miter" stroke="rgb(0%, 0%, 0%)" stroke-opacity="1" stroke-miterlimit="10" d="M 13.9 9.848242 C 13.9 11.892773 12.241992 13.55 10.19668 13.55 C 8.151367 13.55 6.493359 11.892773 6.493359 9.848242 C 6.493359 7.803906 8.151367 6.14668 10.19668 6.14668 C 12.241992 6.14668 13.9 7.803906 13.9 9.848242 " transform="matrix(20, 0, 0, 20, -112, -105)"/>
<path fill="none" stroke-width="0.2" stroke-linecap="butt" stroke-linejoin="miter" stroke="rgb(0%, 0%, 0%)" stroke-opacity="1" stroke-miterlimit="10" d="M 10.19668 6.14668 L 13.9 9.848242 " transform="matrix(20, 0, 0, 20, -112, -105)"/>
<path fill="none" stroke-width="0.2" stroke-linecap="butt" stroke-linejoin="miter" stroke="rgb(0%, 0%, 0%)" stroke-opacity="1" stroke-miterlimit="10" d="M 13.9 9.848242 L 10.19668 13.55 " transform="matrix(20, 0, 0, 20, -112, -105)"/>
<path fill="none" stroke-width="0.2" stroke-linecap="butt" stroke-linejoin="miter" stroke="rgb(0%, 0%, 0%)" stroke-opacity="1" stroke-miterlimit="10" d="M 10.19668 6.14668 L 6.493359 9.848242 " transform="matrix(20, 0, 0, 20, -112, -105)"/>
<path fill="none" stroke-width="0.2" stroke-linecap="butt" stroke-linejoin="miter" stroke="rgb(0%, 0%, 0%)" stroke-opacity="1" stroke-miterlimit="10" d="M 6.493359 9.848242 L 10.19668 13.55 " transform="matrix(20, 0, 0, 20, -112, -105)"/>
<path fill="none" stroke-width="0.2" stroke-linecap="butt" stroke-linejoin="miter" stroke="rgb(0%, 0%, 0%)" stroke-opacity="1" stroke-dasharray="0.3 0.3" stroke-miterlimit="10" d="M 13.95 6.2 L 6.85 13.4 " transform="matrix(20, 0, 0, 20, -112, -105)"/>
<path fill="none" stroke-width="0.1" stroke-linecap="butt" stroke-linejoin="miter" stroke="rgb(0%, 0%, 0%)" stroke-opacity="1" stroke-dasharray="0.3 0.3" stroke-miterlimit="10" d="M 13.45 13.05 L 6.95 6.6 " transform="matrix(20, 0, 0, 20, -112, -105)"/>
<path fill="none" stroke-width="0.2" stroke-linecap="butt" stroke-linejoin="miter" stroke="rgb(0%, 0%, 0%)" stroke-opacity="1" stroke-dasharray="0.3 0.3" stroke-miterlimit="10" d="M 10.25 5.35 L 10.25 14.5 " transform="matrix(20, 0, 0, 20, -112, -105)"/>
<path fill="none" stroke-width="0.2" stroke-linecap="butt" stroke-linejoin="miter" stroke="rgb(0%, 0%, 0%)" stroke-opacity="1" stroke-dasharray="0.3 0.3" stroke-miterlimit="10" d="M 14.75 9.9 L 5.7 9.9 " transform="matrix(20, 0, 0, 20, -112, -105)"/>
</svg>
