<?xml version="1.0" encoding="UTF-8"?>
<svg xmlns="http://www.w3.org/2000/svg" xmlns:xlink="http://www.w3.org/1999/xlink" width="161" height="162" viewBox="0 0 161 162">
<rect x="-16.1" y="-16.2" width="193.2" height="194.4" fill="rgb(100%, 100%, 100%)" fill-opacity="0"/>
<path fill-rule="evenodd" fill="rgb(0%, 0%, 0%)" fill-opacity="1" stroke-width="0.1" stroke-linecap="butt" stroke-linejoin="miter" stroke="rgb(0%, 0%, 0%)" stroke-opacity="1" stroke-miterlimit="10" d="M 6.071507 5.9765 L 7.053343 5.9765 L 7.053343 6.958336 L 6.071507 6.958336 Z M 6.071507 5.9765 " transform="matrix(20, 0, 0, 20, -119.430147, -117.217493)"/>
<path fill-rule="evenodd" fill="rgb(100%, 100%, 100%)" fill-opacity="1" stroke-width="0.1" stroke-linecap="butt" stroke-linejoin="miter" stroke="rgb(0%, 0%, 0%)" stroke-opacity="1" stroke-miterlimit="10" d="M 7.061742 5.971812 L 8.043578 5.971812 L 8.043578 6.953648 L 7.061742 6.953648 Z M 7.061742 5.971812 " transform="matrix(20, 0, 0, 20, -119.430147, -117.217493)"/>
<path fill-rule="evenodd" fill="rgb(0%, 0%, 0%)" fill-opacity="1" stroke-width="0.1" stroke-linecap="butt" stroke-linejoin="miter" stroke="rgb(0%, 0%, 0%)" stroke-opacity="1" stroke-miterlimit="10" d="M 8.056664 5.974547 L 9.0385 5.974547 L 9.0385 6.956382 L 8.056664 6.956382 Z M 8.056664 5.974547 " transform="matrix(20, 0, 0, 20, -119.430147, -117.217493)"/>
<path fill-rule="evenodd" fill="rgb(100%, 100%, 100%)" fill-opacity="1" stroke-width="0.1" stroke-linecap="butt" stroke-linejoin="miter" stroke="rgb(0%, 0%, 0%)" stroke-opacity="1" stroke-miterlimit="10" d="M 9.046898 5.969664 L 10.028734 5.969664 L 10.028734 6.9515 L 9.046898 6.9515 Z M 9.046898 5.969664 " transform="matrix(20, 0, 0, 20, -119.430147, -117.217493)"/>
<path fill-rule="evenodd" fill="rgb(0%, 0%, 0%)" fill-opacity="1" stroke-width="0.1" stroke-linecap="butt" stroke-linejoin="miter" stroke="rgb(0%, 0%, 0%)" stroke-opacity="1" stroke-miterlimit="10" d="M 10.019164 5.967711 L 11.001 5.967711 L 11.001 6.949547 L 10.019164 6.949547 Z M 10.019164 5.967711 " transform="matrix(20, 0, 0, 20, -119.430147, -117.217493)"/>
<path fill-rule="evenodd" fill="rgb(100%, 100%, 100%)" fill-opacity="1" stroke-width="0.1" stroke-linecap="butt" stroke-linejoin="miter" stroke="rgb(0%, 0%, 0%)" stroke-opacity="1" stroke-miterlimit="10" d="M 11.009398 5.962828 L 11.991234 5.962828 L 11.991234 6.944664 L 11.009398 6.944664 Z M 11.009398 5.962828 " transform="matrix(20, 0, 0, 20, -119.430147, -117.217493)"/>
<path fill-rule="evenodd" fill="rgb(0%, 0%, 0%)" fill-opacity="1" stroke-width="0.1" stroke-linecap="butt" stroke-linejoin="miter" stroke="rgb(0%, 0%, 0%)" stroke-opacity="1" stroke-miterlimit="10" d="M 11.99182 5.965757 L 12.973656 5.965757 L 12.973656 6.947593 L 11.99182 6.947593 Z M 11.99182 5.965757 " transform="matrix(20, 0, 0, 20, -119.430147, -117.217493)"/>
<path fill-rule="evenodd" fill="rgb(100%, 100%, 100%)" fill-opacity="1" stroke-width="0.1" stroke-linecap="butt" stroke-linejoin="miter" stroke="rgb(0%, 0%, 0%)" stroke-opacity="1" stroke-miterlimit="10" d="M 12.957054 5.960875 L 13.93889 5.960875 L 13.93889 6.942711 L 12.957054 6.942711 Z M 12.957054 5.960875 " transform="matrix(20, 0, 0, 20, -119.430147, -117.217493)"/>
<path fill-rule="evenodd" fill="rgb(0%, 0%, 0%)" fill-opacity="1" stroke-width="0.1" stroke-linecap="butt" stroke-linejoin="miter" stroke="rgb(0%, 0%, 0%)" stroke-opacity="1" stroke-miterlimit="10" d="M 12.960375 6.960289 L 13.94221 6.960289 L 13.94221 7.942125 L 12.960375 7.942125 Z M 12.960375 6.960289 " transform="matrix(20, 0, 0, 20, -119.430147, -117.217493)"/>
<path fill-rule="evenodd" fill="rgb(100%, 100%, 100%)" fill-opacity="1" stroke-width="0.1" stroke-linecap="butt" stroke-linejoin="miter" stroke="rgb(0%, 0%, 0%)" stroke-opacity="1" stroke-miterlimit="10" d="M 6.075218 6.96439 L 7.057054 6.96439 L 7.057054 7.946226 L 6.075218 7.946226 Z M 6.075218 6.96439 " transform="matrix(20, 0, 0, 20, -119.430147, -117.217493)"/>
<path fill-rule="evenodd" fill="rgb(0%, 0%, 0%)" fill-opacity="1" stroke-width="0.1" stroke-linecap="butt" stroke-linejoin="miter" stroke="rgb(0%, 0%, 0%)" stroke-opacity="1" stroke-miterlimit="10" d="M 7.061351 6.967125 L 8.043187 6.967125 L 8.043187 7.948961 L 7.061351 7.948961 Z M 7.061351 6.967125 " transform="matrix(20, 0, 0, 20, -119.430147, -117.217493)"/>
<path fill-rule="evenodd" fill="rgb(100%, 100%, 100%)" fill-opacity="1" stroke-width="0.1" stroke-linecap="butt" stroke-linejoin="miter" stroke="rgb(0%, 0%, 0%)" stroke-opacity="1" stroke-miterlimit="10" d="M 8.05139 6.962437 L 9.033226 6.962437 L 9.033226 7.944273 L 8.05139 7.944273 Z M 8.05139 6.962437 " transform="matrix(20, 0, 0, 20, -119.430147, -117.217493)"/>
<path fill-rule="evenodd" fill="rgb(0%, 0%, 0%)" fill-opacity="1" stroke-width="0.1" stroke-linecap="butt" stroke-linejoin="miter" stroke="rgb(0%, 0%, 0%)" stroke-opacity="1" stroke-miterlimit="10" d="M 9.023851 6.960289 L 10.005687 6.960289 L 10.005687 7.942125 L 9.023851 7.942125 Z M 9.023851 6.960289 " transform="matrix(20, 0, 0, 20, -119.430147, -117.217493)"/>
<path fill-rule="evenodd" fill="rgb(100%, 100%, 100%)" fill-opacity="1" stroke-width="0.1" stroke-linecap="butt" stroke-linejoin="miter" stroke="rgb(0%, 0%, 0%)" stroke-opacity="1" stroke-miterlimit="10" d="M 10.01389 6.955601 L 10.995726 6.955601 L 10.995726 7.937437 L 10.01389 7.937437 Z M 10.01389 6.955601 " transform="matrix(20, 0, 0, 20, -119.430147, -117.217493)"/>
<path fill-rule="evenodd" fill="rgb(0%, 0%, 0%)" fill-opacity="1" stroke-width="0.1" stroke-linecap="butt" stroke-linejoin="miter" stroke="rgb(0%, 0%, 0%)" stroke-opacity="1" stroke-miterlimit="10" d="M 10.996312 6.958336 L 11.978148 6.958336 L 11.978148 7.940172 L 10.996312 7.940172 Z M 10.996312 6.958336 " transform="matrix(20, 0, 0, 20, -119.430147, -117.217493)"/>
<path fill-rule="evenodd" fill="rgb(100%, 100%, 100%)" fill-opacity="1" stroke-width="0.1" stroke-linecap="butt" stroke-linejoin="miter" stroke="rgb(0%, 0%, 0%)" stroke-opacity="1" stroke-miterlimit="10" d="M 11.961546 6.953453 L 12.943382 6.953453 L 12.943382 7.935289 L 11.961546 7.935289 Z M 11.961546 6.953453 " transform="matrix(20, 0, 0, 20, -119.430147, -117.217493)"/>
<path fill-rule="evenodd" fill="rgb(0%, 0%, 0%)" fill-opacity="1" stroke-width="0.1" stroke-linecap="butt" stroke-linejoin="miter" stroke="rgb(0%, 0%, 0%)" stroke-opacity="1" stroke-miterlimit="10" d="M 6.071507 7.959507 L 7.053343 7.959507 L 7.053343 8.941343 L 6.071507 8.941343 Z M 6.071507 7.959507 " transform="matrix(20, 0, 0, 20, -119.430147, -117.217493)"/>
<path fill-rule="evenodd" fill="rgb(100%, 100%, 100%)" fill-opacity="1" stroke-width="0.1" stroke-linecap="butt" stroke-linejoin="miter" stroke="rgb(0%, 0%, 0%)" stroke-opacity="1" stroke-miterlimit="10" d="M 7.061742 7.954625 L 8.043578 7.954625 L 8.043578 8.936461 L 7.061742 8.936461 Z M 7.061742 7.954625 " transform="matrix(20, 0, 0, 20, -119.430147, -117.217493)"/>
<path fill-rule="evenodd" fill="rgb(0%, 0%, 0%)" fill-opacity="1" stroke-width="0.1" stroke-linecap="butt" stroke-linejoin="miter" stroke="rgb(0%, 0%, 0%)" stroke-opacity="1" stroke-miterlimit="10" d="M 8.056664 7.957554 L 9.0385 7.957554 L 9.0385 8.93939 L 8.056664 8.93939 Z M 8.056664 7.957554 " transform="matrix(20, 0, 0, 20, -119.430147, -117.217493)"/>
<path fill-rule="evenodd" fill="rgb(100%, 100%, 100%)" fill-opacity="1" stroke-width="0.1" stroke-linecap="butt" stroke-linejoin="miter" stroke="rgb(0%, 0%, 0%)" stroke-opacity="1" stroke-miterlimit="10" d="M 9.046898 7.952672 L 10.028734 7.952672 L 10.028734 8.934507 L 9.046898 8.934507 Z M 9.046898 7.952672 " transform="matrix(20, 0, 0, 20, -119.430147, -117.217493)"/>
<path fill-rule="evenodd" fill="rgb(0%, 0%, 0%)" fill-opacity="1" stroke-width="0.1" stroke-linecap="butt" stroke-linejoin="miter" stroke="rgb(0%, 0%, 0%)" stroke-opacity="1" stroke-miterlimit="10" d="M 10.019164 7.950718 L 11.001 7.950718 L 11.001 8.932554 L 10.019164 8.932554 Z M 10.019164 7.950718 " transform="matrix(20, 0, 0, 20, -119.430147, -117.217493)"/>
<path fill-rule="evenodd" fill="rgb(100%, 100%, 100%)" fill-opacity="1" stroke-width="0.1" stroke-linecap="butt" stroke-linejoin="miter" stroke="rgb(0%, 0%, 0%)" stroke-opacity="1" stroke-miterlimit="10" d="M 11.009398 7.945836 L 11.991234 7.945836 L 11.991234 8.927672 L 11.009398 8.927672 Z M 11.009398 7.945836 " transform="matrix(20, 0, 0, 20, -119.430147, -117.217493)"/>
<path fill-rule="evenodd" fill="rgb(0%, 0%, 0%)" fill-opacity="1" stroke-width="0.1" stroke-linecap="butt" stroke-linejoin="miter" stroke="rgb(0%, 0%, 0%)" stroke-opacity="1" stroke-miterlimit="10" d="M 11.99182 7.94857 L 12.973656 7.94857 L 12.973656 8.930406 L 11.99182 8.930406 Z M 11.99182 7.94857 " transform="matrix(20, 0, 0, 20, -119.430147, -117.217493)"/>
<path fill-rule="evenodd" fill="rgb(100%, 100%, 100%)" fill-opacity="1" stroke-width="0.1" stroke-linecap="butt" stroke-linejoin="miter" stroke="rgb(0%, 0%, 0%)" stroke-opacity="1" stroke-miterlimit="10" d="M 12.957054 7.943882 L 13.93889 7.943882 L 13.93889 8.925718 L 12.957054 8.925718 Z M 12.957054 7.943882 " transform="matrix(20, 0, 0, 20, -119.430147, -117.217493)"/>
<path fill-rule="evenodd" fill="rgb(0%, 0%, 0%)" fill-opacity="1" stroke-width="0.1" stroke-linecap="butt" stroke-linejoin="miter" stroke="rgb(0%, 0%, 0%)" stroke-opacity="1" stroke-miterlimit="10" d="M 12.960375 8.943297 L 13.94221 8.943297 L 13.94221 9.925132 L 12.960375 9.925132 Z M 12.960375 8.943297 " transform="matrix(20, 0, 0, 20, -119.430147, -117.217493)"/>
<path fill-rule="evenodd" fill="rgb(100%, 100%, 100%)" fill-opacity="1" stroke-width="0.1" stroke-linecap="butt" stroke-linejoin="miter" stroke="rgb(0%, 0%, 0%)" stroke-opacity="1" stroke-miterlimit="10" d="M 6.075218 8.947398 L 7.057054 8.947398 L 7.057054 9.929234 L 6.075218 9.929234 Z M 6.075218 8.947398 " transform="matrix(20, 0, 0, 20, -119.430147, -117.217493)"/>
<path fill-rule="evenodd" fill="rgb(0%, 0%, 0%)" fill-opacity="1" stroke-width="0.1" stroke-linecap="butt" stroke-linejoin="miter" stroke="rgb(0%, 0%, 0%)" stroke-opacity="1" stroke-miterlimit="10" d="M 7.061351 8.950132 L 8.043187 8.950132 L 8.043187 9.931968 L 7.061351 9.931968 Z M 7.061351 8.950132 " transform="matrix(20, 0, 0, 20, -119.430147, -117.217493)"/>
<path fill-rule="evenodd" fill="rgb(100%, 100%, 100%)" fill-opacity="1" stroke-width="0.1" stroke-linecap="butt" stroke-linejoin="miter" stroke="rgb(0%, 0%, 0%)" stroke-opacity="1" stroke-miterlimit="10" d="M 8.05139 8.94525 L 9.033226 8.94525 L 9.033226 9.927086 L 8.05139 9.927086 Z M 8.05139 8.94525 " transform="matrix(20, 0, 0, 20, -119.430147, -117.217493)"/>
<path fill-rule="evenodd" fill="rgb(0%, 0%, 0%)" fill-opacity="1" stroke-width="0.1" stroke-linecap="butt" stroke-linejoin="miter" stroke="rgb(0%, 0%, 0%)" stroke-opacity="1" stroke-miterlimit="10" d="M 9.023851 8.943297 L 10.005687 8.943297 L 10.005687 9.925132 L 9.023851 9.925132 Z M 9.023851 8.943297 " transform="matrix(20, 0, 0, 20, -119.430147, -117.217493)"/>
<path fill-rule="evenodd" fill="rgb(100%, 100%, 100%)" fill-opacity="1" stroke-width="0.1" stroke-linecap="butt" stroke-linejoin="miter" stroke="rgb(0%, 0%, 0%)" stroke-opacity="1" stroke-miterlimit="10" d="M 10.01389 8.938609 L 10.995726 8.938609 L 10.995726 9.920445 L 10.01389 9.920445 Z M 10.01389 8.938609 " transform="matrix(20, 0, 0, 20, -119.430147, -117.217493)"/>
<path fill-rule="evenodd" fill="rgb(0%, 0%, 0%)" fill-opacity="1" stroke-width="0.1" stroke-linecap="butt" stroke-linejoin="miter" stroke="rgb(0%, 0%, 0%)" stroke-opacity="1" stroke-miterlimit="10" d="M 10.996312 8.941343 L 11.978148 8.941343 L 11.978148 9.923179 L 10.996312 9.923179 Z M 10.996312 8.941343 " transform="matrix(20, 0, 0, 20, -119.430147, -117.217493)"/>
<path fill-rule="evenodd" fill="rgb(100%, 100%, 100%)" fill-opacity="1" stroke-width="0.1" stroke-linecap="butt" stroke-linejoin="miter" stroke="rgb(0%, 0%, 0%)" stroke-opacity="1" stroke-miterlimit="10" d="M 11.961546 8.936461 L 12.943382 8.936461 L 12.943382 9.918297 L 11.961546 9.918297 Z M 11.961546 8.936461 " transform="matrix(20, 0, 0, 20, -119.430147, -117.217493)"/>
<path fill-rule="evenodd" fill="rgb(0%, 0%, 0%)" fill-opacity="1" stroke-width="0.1" stroke-linecap="butt" stroke-linejoin="miter" stroke="rgb(0%, 0%, 0%)" stroke-opacity="1" stroke-miterlimit="10" d="M 6.071507 9.930601 L 7.053343 9.930601 L 7.053343 10.912437 L 6.071507 10.912437 Z M 6.071507 9.930601 " transform="matrix(20, 0, 0, 20, -119.430147, -117.217493)"/>
<path fill-rule="evenodd" fill="rgb(100%, 100%, 100%)" fill-opacity="1" stroke-width="0.1" stroke-linecap="butt" stroke-linejoin="miter" stroke="rgb(0%, 0%, 0%)" stroke-opacity="1" stroke-miterlimit="10" d="M 7.061742 9.925718 L 8.043578 9.925718 L 8.043578 10.907554 L 7.061742 10.907554 Z M 7.061742 9.925718 " transform="matrix(20, 0, 0, 20, -119.430147, -117.217493)"/>
<path fill-rule="evenodd" fill="rgb(0%, 0%, 0%)" fill-opacity="1" stroke-width="0.1" stroke-linecap="butt" stroke-linejoin="miter" stroke="rgb(0%, 0%, 0%)" stroke-opacity="1" stroke-miterlimit="10" d="M 8.056664 9.928453 L 9.0385 9.928453 L 9.0385 10.910289 L 8.056664 10.910289 Z M 8.056664 9.928453 " transform="matrix(20, 0, 0, 20, -119.430147, -117.217493)"/>
<path fill-rule="evenodd" fill="rgb(100%, 100%, 100%)" fill-opacity="1" stroke-width="0.1" stroke-linecap="butt" stroke-linejoin="miter" stroke="rgb(0%, 0%, 0%)" stroke-opacity="1" stroke-miterlimit="10" d="M 9.046898 9.923765 L 10.028734 9.923765 L 10.028734 10.905601 L 9.046898 10.905601 Z M 9.046898 9.923765 " transform="matrix(20, 0, 0, 20, -119.430147, -117.217493)"/>
<path fill-rule="evenodd" fill="rgb(0%, 0%, 0%)" fill-opacity="1" stroke-width="0.1" stroke-linecap="butt" stroke-linejoin="miter" stroke="rgb(0%, 0%, 0%)" stroke-opacity="1" stroke-miterlimit="10" d="M 10.019164 9.921812 L 11.001 9.921812 L 11.001 10.903648 L 10.019164 10.903648 Z M 10.019164 9.921812 " transform="matrix(20, 0, 0, 20, -119.430147, -117.217493)"/>
<path fill-rule="evenodd" fill="rgb(100%, 100%, 100%)" fill-opacity="1" stroke-width="0.1" stroke-linecap="butt" stroke-linejoin="miter" stroke="rgb(0%, 0%, 0%)" stroke-opacity="1" stroke-miterlimit="10" d="M 11.009398 9.916929 L 11.991234 9.916929 L 11.991234 10.898765 L 11.009398 10.898765 Z M 11.009398 9.916929 " transform="matrix(20, 0, 0, 20, -119.430147, -117.217493)"/>
<path fill-rule="evenodd" fill="rgb(0%, 0%, 0%)" fill-opacity="1" stroke-width="0.1" stroke-linecap="butt" stroke-linejoin="miter" stroke="rgb(0%, 0%, 0%)" stroke-opacity="1" stroke-miterlimit="10" d="M 11.99182 9.919664 L 12.973656 9.919664 L 12.973656 10.9015 L 11.99182 10.9015 Z M 11.99182 9.919664 " transform="matrix(20, 0, 0, 20, -119.430147, -117.217493)"/>
<path fill-rule="evenodd" fill="rgb(100%, 100%, 100%)" fill-opacity="1" stroke-width="0.1" stroke-linecap="butt" stroke-linejoin="miter" stroke="rgb(0%, 0%, 0%)" stroke-opacity="1" stroke-miterlimit="10" d="M 12.957054 9.914976 L 13.93889 9.914976 L 13.93889 10.896812 L 12.957054 10.896812 Z M 12.957054 9.914976 " transform="matrix(20, 0, 0, 20, -119.430147, -117.217493)"/>
<path fill-rule="evenodd" fill="rgb(0%, 0%, 0%)" fill-opacity="1" stroke-width="0.1" stroke-linecap="butt" stroke-linejoin="miter" stroke="rgb(0%, 0%, 0%)" stroke-opacity="1" stroke-miterlimit="10" d="M 12.960375 10.91439 L 13.94221 10.91439 L 13.94221 11.896226 L 12.960375 11.896226 Z M 12.960375 10.91439 " transform="matrix(20, 0, 0, 20, -119.430147, -117.217493)"/>
<path fill-rule="evenodd" fill="rgb(100%, 100%, 100%)" fill-opacity="1" stroke-width="0.1" stroke-linecap="butt" stroke-linejoin="miter" stroke="rgb(0%, 0%, 0%)" stroke-opacity="1" stroke-miterlimit="10" d="M 6.075218 10.918492 L 7.057054 10.918492 L 7.057054 11.900328 L 6.075218 11.900328 Z M 6.075218 10.918492 " transform="matrix(20, 0, 0, 20, -119.430147, -117.217493)"/>
<path fill-rule="evenodd" fill="rgb(0%, 0%, 0%)" fill-opacity="1" stroke-width="0.1" stroke-linecap="butt" stroke-linejoin="miter" stroke="rgb(0%, 0%, 0%)" stroke-opacity="1" stroke-miterlimit="10" d="M 7.061351 10.921226 L 8.043187 10.921226 L 8.043187 11.903062 L 7.061351 11.903062 Z M 7.061351 10.921226 " transform="matrix(20, 0, 0, 20, -119.430147, -117.217493)"/>
<path fill-rule="evenodd" fill="rgb(100%, 100%, 100%)" fill-opacity="1" stroke-width="0.1" stroke-linecap="butt" stroke-linejoin="miter" stroke="rgb(0%, 0%, 0%)" stroke-opacity="1" stroke-miterlimit="10" d="M 8.05139 10.916343 L 9.033226 10.916343 L 9.033226 11.898179 L 8.05139 11.898179 Z M 8.05139 10.916343 " transform="matrix(20, 0, 0, 20, -119.430147, -117.217493)"/>
<path fill-rule="evenodd" fill="rgb(0%, 0%, 0%)" fill-opacity="1" stroke-width="0.1" stroke-linecap="butt" stroke-linejoin="miter" stroke="rgb(0%, 0%, 0%)" stroke-opacity="1" stroke-miterlimit="10" d="M 9.023851 10.91439 L 10.005687 10.91439 L 10.005687 11.896226 L 9.023851 11.896226 Z M 9.023851 10.91439 " transform="matrix(20, 0, 0, 20, -119.430147, -117.217493)"/>
<path fill-rule="evenodd" fill="rgb(100%, 100%, 100%)" fill-opacity="1" stroke-width="0.1" stroke-linecap="butt" stroke-linejoin="miter" stroke="rgb(0%, 0%, 0%)" stroke-opacity="1" stroke-miterlimit="10" d="M 10.01389 10.909507 L 10.995726 10.909507 L 10.995726 11.891343 L 10.01389 11.891343 Z M 10.01389 10.909507 " transform="matrix(20, 0, 0, 20, -119.430147, -117.217493)"/>
<path fill-rule="evenodd" fill="rgb(0%, 0%, 0%)" fill-opacity="1" stroke-width="0.1" stroke-linecap="butt" stroke-linejoin="miter" stroke="rgb(0%, 0%, 0%)" stroke-opacity="1" stroke-miterlimit="10" d="M 10.996312 10.912242 L 11.978148 10.912242 L 11.978148 11.894078 L 10.996312 11.894078 Z M 10.996312 10.912242 " transform="matrix(20, 0, 0, 20, -119.430147, -117.217493)"/>
<path fill-rule="evenodd" fill="rgb(100%, 100%, 100%)" fill-opacity="1" stroke-width="0.1" stroke-linecap="butt" stroke-linejoin="miter" stroke="rgb(0%, 0%, 0%)" stroke-opacity="1" stroke-miterlimit="10" d="M 11.961546 10.907554 L 12.943382 10.907554 L 12.943382 11.88939 L 11.961546 11.88939 Z M 11.961546 10.907554 " transform="matrix(20, 0, 0, 20, -119.430147, -117.217493)"/>
<path fill-rule="evenodd" fill="rgb(0%, 0%, 0%)" fill-opacity="1" stroke-width="0.1" stroke-linecap="butt" stroke-linejoin="miter" stroke="rgb(0%, 0%, 0%)" stroke-opacity="1" stroke-miterlimit="10" d="M 6.073656 11.898375 L 7.055492 11.898375 L 7.055492 12.880211 L 6.073656 12.880211 Z M 6.073656 11.898375 " transform="matrix(20, 0, 0, 20, -119.430147, -117.217493)"/>
<path fill-rule="evenodd" fill="rgb(100%, 100%, 100%)" fill-opacity="1" stroke-width="0.1" stroke-linecap="butt" stroke-linejoin="miter" stroke="rgb(0%, 0%, 0%)" stroke-opacity="1" stroke-miterlimit="10" d="M 7.06389 11.893492 L 8.045726 11.893492 L 8.045726 12.875328 L 7.06389 12.875328 Z M 7.06389 11.893492 " transform="matrix(20, 0, 0, 20, -119.430147, -117.217493)"/>
<path fill-rule="evenodd" fill="rgb(0%, 0%, 0%)" fill-opacity="1" stroke-width="0.1" stroke-linecap="butt" stroke-linejoin="miter" stroke="rgb(0%, 0%, 0%)" stroke-opacity="1" stroke-miterlimit="10" d="M 8.058812 11.896226 L 9.040648 11.896226 L 9.040648 12.878062 L 8.058812 12.878062 Z M 8.058812 11.896226 " transform="matrix(20, 0, 0, 20, -119.430147, -117.217493)"/>
<path fill-rule="evenodd" fill="rgb(100%, 100%, 100%)" fill-opacity="1" stroke-width="0.1" stroke-linecap="butt" stroke-linejoin="miter" stroke="rgb(0%, 0%, 0%)" stroke-opacity="1" stroke-miterlimit="10" d="M 9.049046 11.891539 L 10.030882 11.891539 L 10.030882 12.873375 L 9.049046 12.873375 Z M 9.049046 11.891539 " transform="matrix(20, 0, 0, 20, -119.430147, -117.217493)"/>
<path fill-rule="evenodd" fill="rgb(0%, 0%, 0%)" fill-opacity="1" stroke-width="0.1" stroke-linecap="butt" stroke-linejoin="miter" stroke="rgb(0%, 0%, 0%)" stroke-opacity="1" stroke-miterlimit="10" d="M 10.021312 11.88939 L 11.003148 11.88939 L 11.003148 12.871226 L 10.021312 12.871226 Z M 10.021312 11.88939 " transform="matrix(20, 0, 0, 20, -119.430147, -117.217493)"/>
<path fill-rule="evenodd" fill="rgb(100%, 100%, 100%)" fill-opacity="1" stroke-width="0.1" stroke-linecap="butt" stroke-linejoin="miter" stroke="rgb(0%, 0%, 0%)" stroke-opacity="1" stroke-miterlimit="10" d="M 11.011546 11.884703 L 11.993382 11.884703 L 11.993382 12.866539 L 11.011546 12.866539 Z M 11.011546 11.884703 " transform="matrix(20, 0, 0, 20, -119.430147, -117.217493)"/>
<path fill-rule="evenodd" fill="rgb(0%, 0%, 0%)" fill-opacity="1" stroke-width="0.1" stroke-linecap="butt" stroke-linejoin="miter" stroke="rgb(0%, 0%, 0%)" stroke-opacity="1" stroke-miterlimit="10" d="M 11.993968 11.887437 L 12.975804 11.887437 L 12.975804 12.869273 L 11.993968 12.869273 Z M 11.993968 11.887437 " transform="matrix(20, 0, 0, 20, -119.430147, -117.217493)"/>
<path fill-rule="evenodd" fill="rgb(100%, 100%, 100%)" fill-opacity="1" stroke-width="0.1" stroke-linecap="butt" stroke-linejoin="miter" stroke="rgb(0%, 0%, 0%)" stroke-opacity="1" stroke-miterlimit="10" d="M 12.959007 11.882554 L 13.940843 11.882554 L 13.940843 12.86439 L 12.959007 12.86439 Z M 12.959007 11.882554 " transform="matrix(20, 0, 0, 20, -119.430147, -117.217493)"/>
<path fill-rule="evenodd" fill="rgb(0%, 0%, 0%)" fill-opacity="1" stroke-width="0.1" stroke-linecap="butt" stroke-linejoin="miter" stroke="rgb(0%, 0%, 0%)" stroke-opacity="1" stroke-miterlimit="10" d="M 12.962523 12.882164 L 13.944359 12.882164 L 13.944359 13.864 L 12.962523 13.864 Z M 12.962523 12.882164 " transform="matrix(20, 0, 0, 20, -119.430147, -117.217493)"/>
<path fill-rule="evenodd" fill="rgb(100%, 100%, 100%)" fill-opacity="1" stroke-width="0.1" stroke-linecap="butt" stroke-linejoin="miter" stroke="rgb(0%, 0%, 0%)" stroke-opacity="1" stroke-miterlimit="10" d="M 6.077367 12.88607 L 7.059203 12.88607 L 7.059203 13.867906 L 6.077367 13.867906 Z M 6.077367 12.88607 " transform="matrix(20, 0, 0, 20, -119.430147, -117.217493)"/>
<path fill-rule="evenodd" fill="rgb(0%, 0%, 0%)" fill-opacity="1" stroke-width="0.1" stroke-linecap="butt" stroke-linejoin="miter" stroke="rgb(0%, 0%, 0%)" stroke-opacity="1" stroke-miterlimit="10" d="M 7.063304 12.888804 L 8.04514 12.888804 L 8.04514 13.87064 L 7.063304 13.87064 Z M 7.063304 12.888804 " transform="matrix(20, 0, 0, 20, -119.430147, -117.217493)"/>
<path fill-rule="evenodd" fill="rgb(100%, 100%, 100%)" fill-opacity="1" stroke-width="0.1" stroke-linecap="butt" stroke-linejoin="miter" stroke="rgb(0%, 0%, 0%)" stroke-opacity="1" stroke-miterlimit="10" d="M 8.053539 12.884117 L 9.035375 12.884117 L 9.035375 13.865953 L 8.053539 13.865953 Z M 8.053539 12.884117 " transform="matrix(20, 0, 0, 20, -119.430147, -117.217493)"/>
<path fill-rule="evenodd" fill="rgb(0%, 0%, 0%)" fill-opacity="1" stroke-width="0.1" stroke-linecap="butt" stroke-linejoin="miter" stroke="rgb(0%, 0%, 0%)" stroke-opacity="1" stroke-miterlimit="10" d="M 9.025804 12.882164 L 10.00764 12.882164 L 10.00764 13.864 L 9.025804 13.864 Z M 9.025804 12.882164 " transform="matrix(20, 0, 0, 20, -119.430147, -117.217493)"/>
<path fill-rule="evenodd" fill="rgb(100%, 100%, 100%)" fill-opacity="1" stroke-width="0.1" stroke-linecap="butt" stroke-linejoin="miter" stroke="rgb(0%, 0%, 0%)" stroke-opacity="1" stroke-miterlimit="10" d="M 10.016039 12.877281 L 10.997875 12.877281 L 10.997875 13.859117 L 10.016039 13.859117 Z M 10.016039 12.877281 " transform="matrix(20, 0, 0, 20, -119.430147, -117.217493)"/>
<path fill-rule="evenodd" fill="rgb(0%, 0%, 0%)" fill-opacity="1" stroke-width="0.1" stroke-linecap="butt" stroke-linejoin="miter" stroke="rgb(0%, 0%, 0%)" stroke-opacity="1" stroke-miterlimit="10" d="M 10.99846 12.880015 L 11.980296 12.880015 L 11.980296 13.861851 L 10.99846 13.861851 Z M 10.99846 12.880015 " transform="matrix(20, 0, 0, 20, -119.430147, -117.217493)"/>
<path fill-rule="evenodd" fill="rgb(100%, 100%, 100%)" fill-opacity="1" stroke-width="0.1" stroke-linecap="butt" stroke-linejoin="miter" stroke="rgb(0%, 0%, 0%)" stroke-opacity="1" stroke-miterlimit="10" d="M 11.963695 12.875328 L 12.945531 12.875328 L 12.945531 13.857164 L 11.963695 13.857164 Z M 11.963695 12.875328 " transform="matrix(20, 0, 0, 20, -119.430147, -117.217493)"/>
</svg>
