<?xml version="1.0" encoding="UTF-8"?>
<svg xmlns="http://www.w3.org/2000/svg" xmlns:xlink="http://www.w3.org/1999/xlink" width="73" height="82" viewBox="0 0 73 82">
<rect x="-7.3" y="-8.2" width="87.6" height="98.4" fill="rgb(100%, 100%, 100%)" fill-opacity="0"/>
<path fill="none" stroke-width="0.1" stroke-linecap="butt" stroke-linejoin="miter" stroke="rgb(0%, 0%, 0%)" stroke-opacity="1" stroke-dasharray="0.2 0.2" stroke-miterlimit="10" d="M 5.850086 5.100018 L 2.550086 8.250018 " transform="matrix(20, 0, 0, 20, -48.439219, -92.074577)"/>
<path fill="none" stroke-width="0.2" stroke-linecap="butt" stroke-linejoin="miter" stroke="rgb(0%, 0%, 0%)" stroke-opacity="1" stroke-miterlimit="10" d="M 5.10282 8.25783 C 3.534656 8.285369 2.050086 5.650018 2.750086 5.450018 " transform="matrix(20, 0, 0, 20, -48.439219, -92.074577)"/>
<path fill="none" stroke-width="0.2" stroke-linecap="butt" stroke-linejoin="miter" stroke="rgb(0%, 0%, 0%)" stroke-opacity="1" stroke-miterlimit="10" d="M 4.830945 8.512713 L 5.326453 8.253924 L 4.822156 8.012713 " transform="matrix(20, 0, 0, 20, -48.439219, -92.074577)"/>
<path fill="none" stroke-width="0.2" stroke-linecap="butt" stroke-linejoin="miter" stroke="rgb(0%, 0%, 0%)" stroke-opacity="1" stroke-miterlimit="10" d="M 3.347156 5.058416 C 5.098328 5.091229 6.450086 7.450018 5.750086 7.950018 " transform="matrix(20, 0, 0, 20, -48.439219, -92.074577)"/>
<path fill="none" stroke-width="0.2" stroke-linecap="butt" stroke-linejoin="miter" stroke="rgb(0%, 0%, 0%)" stroke-opacity="1" stroke-miterlimit="10" d="M 3.628211 4.81369 L 3.123523 5.054119 L 3.618836 5.313494 " transform="matrix(20, 0, 0, 20, -48.439219, -92.074577)"/>
</svg>
