<?xml version="1.0" encoding="UTF-8"?>
<svg xmlns="http://www.w3.org/2000/svg" xmlns:xlink="http://www.w3.org/1999/xlink" width="84" height="91" viewBox="0 0 84 91">
<rect x="-8.4" y="-9.1" width="100.8" height="109.2" fill="rgb(100%, 100%, 100%)" fill-opacity="0"/>
<path fill="none" stroke-width="0.2" stroke-linecap="butt" stroke-linejoin="miter" stroke="rgb(0%, 0%, 0%)" stroke-opacity="1" stroke-miterlimit="10" d="M 14.561257 5.354356 C 13.541335 5.467442 12.794265 6.368418 12.872194 7.391661 C 12.950124 8.414903 13.824733 9.192442 14.849929 9.150059 " transform="matrix(20, 0, 0, 20, -254.334511, -100.485556)"/>
<path fill="none" stroke-width="0.2" stroke-linecap="butt" stroke-linejoin="miter" stroke="rgb(0%, 0%, 0%)" stroke-opacity="1" stroke-miterlimit="10" d="M 14.849929 5.350059 C 15.862038 5.332872 16.711843 6.107872 16.787819 7.117247 C 16.863796 8.126426 16.139382 9.019981 15.136257 9.154356 " transform="matrix(20, 0, 0, 20, -254.334511, -100.485556)"/>
<path fill-rule="evenodd" fill="rgb(100%, 100%, 100%)" fill-opacity="1" stroke-width="0.1" stroke-linecap="butt" stroke-linejoin="miter" stroke="rgb(0%, 0%, 0%)" stroke-opacity="1" stroke-miterlimit="10" d="M 15.113601 7.269981 C 15.113601 7.588145 14.636452 7.588145 14.636452 7.269981 C 14.636452 6.952012 15.113601 6.952012 15.113601 7.269981 " transform="matrix(20, 0, 0, 20, -254.334511, -100.485556)"/>
<path fill="none" stroke-width="0.2" stroke-linecap="butt" stroke-linejoin="miter" stroke="rgb(0%, 0%, 0%)" stroke-opacity="1" stroke-miterlimit="10" d="M 15.090163 5.382481 L 15.221999 5.415489 " transform="matrix(20, 0, 0, 20, -254.334511, -100.485556)"/>
<path fill="none" stroke-width="0.2" stroke-linecap="butt" stroke-linejoin="miter" stroke="rgb(0%, 0%, 0%)" stroke-opacity="1" stroke-miterlimit="10" d="M 15.419069 5.20709 L 14.873366 5.328184 L 15.29778 5.692051 " transform="matrix(20, 0, 0, 20, -254.334511, -100.485556)"/>
<path fill="none" stroke-width="0.2" stroke-linecap="butt" stroke-linejoin="miter" stroke="rgb(0%, 0%, 0%)" stroke-opacity="1" stroke-miterlimit="10" d="M 14.540749 9.142442 L 14.53821 9.142442 " transform="matrix(20, 0, 0, 20, -254.334511, -100.485556)"/>
<path fill="none" stroke-width="0.2" stroke-linecap="butt" stroke-linejoin="miter" stroke="rgb(0%, 0%, 0%)" stroke-opacity="1" stroke-miterlimit="10" d="M 14.255788 9.382872 L 14.764187 9.150254 L 14.273171 8.883067 " transform="matrix(20, 0, 0, 20, -254.334511, -100.485556)"/>
</svg>
