<?xml version="1.0" encoding="UTF-8"?>
<svg xmlns="http://www.w3.org/2000/svg" xmlns:xlink="http://www.w3.org/1999/xlink" width="69" height="74" viewBox="0 0 69 74">
<rect x="-6.9" y="-7.4" width="82.8" height="88.8" fill="rgb(100%, 100%, 100%)" fill-opacity="0"/>
<path fill="none" stroke-width="0.1" stroke-linecap="butt" stroke-linejoin="miter" stroke="rgb(0%, 0%, 0%)" stroke-opacity="1" stroke-dasharray="0.2 0.2" stroke-miterlimit="10" d="M 5.35005 8.399958 L 8.55005 11.099958 " transform="matrix(20, 0, 0, 20, -104.590838, -157.381966)"/>
<path fill="none" stroke-width="0.1" stroke-linecap="butt" stroke-linejoin="miter" stroke="rgb(0%, 0%, 0%)" stroke-opacity="1" stroke-miterlimit="10" d="M 5.55005 11.049958 C 4.85005 10.349958 6.25005 8.249958 7.926417 8.249958 " transform="matrix(20, 0, 0, 20, -104.590838, -157.381966)"/>
<path fill="none" stroke-width="0.1" stroke-linecap="butt" stroke-linejoin="miter" stroke="rgb(0%, 0%, 0%)" stroke-opacity="1" stroke-miterlimit="10" d="M 7.538136 8.499958 L 8.038136 8.249958 L 7.538136 7.999958 " transform="matrix(20, 0, 0, 20, -104.590838, -157.381966)"/>
<path fill="none" stroke-width="0.1" stroke-linecap="butt" stroke-linejoin="miter" stroke="rgb(0%, 0%, 0%)" stroke-opacity="1" stroke-miterlimit="10" d="M 8.50005 8.549958 C 9.067433 9.206989 7.60005 11.099958 6.221925 11.272223 " transform="matrix(20, 0, 0, 20, -104.590838, -157.381966)"/>
<path fill="none" stroke-width="0.1" stroke-linecap="butt" stroke-linejoin="miter" stroke="rgb(0%, 0%, 0%)" stroke-opacity="1" stroke-miterlimit="10" d="M 6.576026 10.97613 L 6.110987 11.28609 L 6.638136 11.472223 " transform="matrix(20, 0, 0, 20, -104.590838, -157.381966)"/>
</svg>
