<?xml version="1.0" encoding="UTF-8"?>
<svg xmlns="http://www.w3.org/2000/svg" xmlns:xlink="http://www.w3.org/1999/xlink" width="168" height="163" viewBox="0 0 168 163">
<rect x="-16.8" y="-16.3" width="201.6" height="195.6" fill="rgb(100%, 100%, 100%)" fill-opacity="0"/>
<path fill="none" stroke-width="0.2" stroke-linecap="butt" stroke-linejoin="miter" stroke="rgb(0%, 0%, 0%)" stroke-opacity="1" stroke-miterlimit="10" d="M 10.9625 4.975 C 10.9625 5.347852 10.660352 5.65 10.2875 5.65 C 9.914648 5.65 9.6125 5.347852 9.6125 4.975 C 9.6125 4.602148 9.914648 4.3 10.2875 4.3 C 10.660352 4.3 10.9625 4.602148 10.9625 4.975 " transform="matrix(20, 0, 0, 20, -120.5, -84)"/>
<path fill="none" stroke-width="0.2" stroke-linecap="butt" stroke-linejoin="miter" stroke="rgb(0%, 0%, 0%)" stroke-opacity="1" stroke-miterlimit="10" d="M 7.475 8.225 C 7.475 8.597852 7.172852 8.9 6.8 8.9 C 6.427148 8.9 6.125 8.597852 6.125 8.225 C 6.125 7.852148 6.427148 7.55 6.8 7.55 C 7.172852 7.55 7.475 7.852148 7.475 8.225 " transform="matrix(20, 0, 0, 20, -120.5, -84)"/>
<path fill="none" stroke-width="0.2" stroke-linecap="butt" stroke-linejoin="miter" stroke="rgb(0%, 0%, 0%)" stroke-opacity="1" stroke-miterlimit="10" d="M 14.325 8.275 C 14.325 8.647852 14.022852 8.95 13.65 8.95 C 13.277148 8.95 12.975 8.647852 12.975 8.275 C 12.975 7.902148 13.277148 7.6 13.65 7.6 C 14.022852 7.6 14.325 7.902148 14.325 8.275 " transform="matrix(20, 0, 0, 20, -120.5, -84)"/>
<path fill="none" stroke-width="0.2" stroke-linecap="butt" stroke-linejoin="miter" stroke="rgb(0%, 0%, 0%)" stroke-opacity="1" stroke-miterlimit="10" d="M 10.9625 11.6 C 10.9625 11.972852 10.660352 12.275 10.2875 12.275 C 9.914648 12.275 9.6125 11.972852 9.6125 11.6 C 9.6125 11.227148 9.914648 10.925 10.2875 10.925 C 10.660352 10.925 10.9625 11.227148 10.9625 11.6 " transform="matrix(20, 0, 0, 20, -120.5, -84)"/>
<path fill="none" stroke-width="0.1" stroke-linecap="butt" stroke-linejoin="miter" stroke="rgb(0%, 0%, 0%)" stroke-opacity="1" stroke-miterlimit="10" d="M 7.330078 7.731055 L 9.757422 5.468945 " transform="matrix(20, 0, 0, 20, -120.5, -84)"/>
<path fill="none" stroke-width="0.1" stroke-linecap="butt" stroke-linejoin="miter" stroke="rgb(0%, 0%, 0%)" stroke-opacity="1" stroke-miterlimit="10" d="M 10.801367 11.091797 L 13.136133 8.783203 " transform="matrix(20, 0, 0, 20, -120.5, -84)"/>
<path fill="none" stroke-width="0.1" stroke-linecap="butt" stroke-linejoin="miter" stroke="rgb(0%, 0%, 0%)" stroke-opacity="1" stroke-miterlimit="10" d="M 7.319336 8.727539 L 9.768164 11.097461 " transform="matrix(20, 0, 0, 20, -120.5, -84)"/>
<path fill="none" stroke-width="0.1" stroke-linecap="butt" stroke-linejoin="miter" stroke="rgb(0%, 0%, 0%)" stroke-opacity="1" stroke-miterlimit="10" d="M 10.805078 5.483008 L 13.132422 7.766992 " transform="matrix(20, 0, 0, 20, -120.5, -84)"/>
</svg>
